<?xml version="1.0" encoding="utf-8"?>
<!-- Generator: Adobe Illustrator 16.0.0, SVG Export Plug-In . SVG Version: 6.00 Build 0)  -->
<!DOCTYPE svg PUBLIC "-//W3C//DTD SVG 1.1//EN" "http://www.w3.org/Graphics/SVG/1.1/DTD/svg11.dtd">
<svg version="1.1" id="Layer_1" xmlns="http://www.w3.org/2000/svg" xmlns:xlink="http://www.w3.org/1999/xlink" x="0px" y="0px"
	 width="260px" height="116px" viewBox="0 0 260 116" enable-background="new 0 0 260 116" xml:space="preserve">
<g>
	<path fill="#0F75BB" d="M69.761,9.4h14.201v36.886l17.9-18.602h16.802L99.163,46.686l21.701,32.702h-17.201L89.462,56.286
		l-5.5,5.301v17.801H69.761V9.4z"/>
	<path fill="#0F75BB" d="M155.564,79.388h-15.801l-17.702-51.703h14.901l10.9,35.303h0.199l10.902-35.303h14.1L155.564,79.388z"/>
	<path fill="#0F75BB" d="M57.8,69.715c-0.969,0-1.41,0-1.41-2.48V40.986c0-11.482-10.665-14.7-22.701-14.7
		c-11.601,0-23.502,4-24.301,17.301h14.2c0.5-5.601,4.001-7.8,9.401-7.8c5,0,9.199,0.899,9.199,7c0,5.8-8.1,5.5-16.801,6.8
		c-8.801,1.2-17.601,4-17.601,15.7c0,10.602,7.8,15.501,17.601,15.501c6.301,0,12.901-1.7,17.401-6.4v0.002
		c1.39,3.375,5.202,6.399,9.992,6.399c2.063,0,6.409-0.703,8.175-1.307l0.84-0.291v-9.887C61.796,69.305,58.457,69.715,57.8,69.715z
		 M42.188,59.388c0,3.101-1.432,11.474-11.074,11.474c-4.6,0-9.127-0.873-9.127-6.174c0-5.2,4.001-6.7,8.401-7.6
		c4.399-0.801,9.4-0.9,11.8-3.001V59.388z"/>
	<g>
		<g>
			<path fill="#0F75BB" d="M186.918,41.696c3.668-5.037,9.592-8.324,16.299-8.324v-7.086c-9.064,0-17.09,4.428-22.045,11.236
				L186.918,41.696z"/>
		</g>
		<g>
			<path fill="#0F75BB" d="M209.447,34.365c6.121,1.987,10.951,6.82,12.941,12.942l6.746-2.192
				c-2.689-8.274-9.223-14.811-17.496-17.497L209.447,34.365z"/>
		</g>
		<g>
			<path fill="#0F75BB" d="M183.051,53.537c0-2.177,0.354-4.267,0.99-6.229l-6.744-2.192c-0.861,2.652-1.332,5.481-1.332,8.422
				c0,5.986,1.934,11.518,5.207,16.015l5.746-4.175C184.498,62.05,183.051,57.967,183.051,53.537z"/>
		</g>
		<g>
			<path fill="#0F75BB" d="M215.057,69.833l4.174,5.747c6.807-4.955,11.236-12.979,11.236-22.043h-7.088
				C223.379,60.243,220.092,66.168,215.057,69.833z"/>
		</g>
		<g>
			<path fill="#0F75BB" d="M209.445,72.71c-1.965,0.638-4.055,0.992-6.229,0.992c-4.432,0-8.516-1.446-11.842-3.869l-4.174,5.746
				c4.496,3.273,10.029,5.209,16.016,5.209c2.939,0,5.768-0.471,8.42-1.332L209.445,72.71z"/>
		</g>
	</g>
	<g opacity="0.5">
		<path fill="#0F75BB" d="M18.373,103.779l-2.2-8.101h-0.027l-2.227,8.101h-1.337l-2.471-9.64h1.31l1.89,8.019h0.027l2.16-8.019
			h1.391l2.133,8.019h0.027l1.957-8.019h1.282l-2.578,9.64H18.373z"/>
		<path fill="#0F75BB" d="M28.998,103.752c-0.198,0.117-0.473,0.176-0.823,0.176c-0.298,0-0.533-0.084-0.709-0.25
			s-0.264-0.439-0.264-0.816c-0.314,0.377-0.682,0.65-1.1,0.816c-0.419,0.166-0.871,0.25-1.357,0.25
			c-0.314,0-0.614-0.037-0.897-0.108s-0.528-0.185-0.735-0.337c-0.207-0.153-0.372-0.354-0.493-0.602
			c-0.121-0.247-0.183-0.547-0.183-0.897c0-0.396,0.068-0.72,0.203-0.972s0.312-0.457,0.533-0.615
			c0.221-0.156,0.473-0.276,0.756-0.357c0.283-0.08,0.573-0.148,0.871-0.202c0.314-0.063,0.614-0.11,0.897-0.142
			s0.533-0.076,0.749-0.135s0.387-0.145,0.513-0.257s0.189-0.276,0.189-0.493c0-0.252-0.047-0.454-0.142-0.607
			c-0.095-0.152-0.216-0.27-0.364-0.351s-0.315-0.136-0.5-0.162c-0.185-0.027-0.367-0.04-0.547-0.04
			c-0.485,0-0.891,0.092-1.215,0.276s-0.499,0.533-0.526,1.046h-1.147c0.018-0.432,0.107-0.797,0.27-1.094s0.378-0.537,0.648-0.722
			c0.27-0.185,0.578-0.317,0.925-0.398s0.718-0.122,1.113-0.122c0.315,0,0.628,0.023,0.938,0.068s0.592,0.137,0.844,0.275
			c0.252,0.14,0.454,0.335,0.607,0.586c0.153,0.252,0.229,0.58,0.229,0.984v3.582c0,0.27,0.016,0.468,0.048,0.594
			c0.031,0.125,0.137,0.188,0.316,0.188c0.1,0,0.217-0.019,0.352-0.054V103.752z M27.135,100.174
			c-0.144,0.107-0.333,0.187-0.566,0.236c-0.234,0.049-0.479,0.089-0.736,0.12c-0.257,0.032-0.516,0.067-0.776,0.108
			c-0.261,0.039-0.495,0.104-0.702,0.193c-0.207,0.09-0.375,0.218-0.506,0.383c-0.131,0.166-0.195,0.393-0.195,0.68
			c0,0.188,0.038,0.346,0.114,0.477c0.076,0.13,0.176,0.234,0.297,0.315c0.122,0.081,0.264,0.139,0.426,0.175
			c0.162,0.035,0.333,0.054,0.513,0.054c0.378,0,0.702-0.052,0.972-0.155c0.271-0.103,0.491-0.232,0.662-0.389
			c0.171-0.157,0.297-0.327,0.378-0.511s0.121-0.356,0.121-0.517V100.174z"/>
		<path fill="#0F75BB" d="M33.048,96.799v1.014h-1.391v4.333c0,0.135,0.012,0.243,0.034,0.323c0.022,0.082,0.065,0.145,0.128,0.189
			s0.15,0.074,0.264,0.088c0.112,0.014,0.258,0.02,0.438,0.02h0.526v1.014h-0.877c-0.298,0-0.552-0.021-0.764-0.061
			c-0.211-0.041-0.382-0.115-0.513-0.224s-0.228-0.261-0.29-0.459c-0.063-0.198-0.095-0.459-0.095-0.782v-4.441h-1.188v-1.014h1.188
			v-2.092h1.147v2.092H33.048z"/>
		<path fill="#0F75BB" d="M39.258,103.334c-0.522,0.396-1.179,0.594-1.971,0.594c-0.559,0-1.042-0.09-1.451-0.271
			c-0.41-0.18-0.754-0.433-1.033-0.756c-0.279-0.324-0.488-0.711-0.628-1.161c-0.14-0.449-0.218-0.94-0.236-1.471
			c0-0.531,0.081-1.018,0.243-1.459c0.162-0.44,0.39-0.823,0.682-1.147c0.293-0.323,0.64-0.575,1.04-0.756
			c0.4-0.18,0.839-0.271,1.316-0.271c0.621,0,1.136,0.129,1.545,0.385c0.41,0.257,0.738,0.584,0.986,0.979
			c0.247,0.396,0.418,0.828,0.513,1.296s0.133,0.914,0.114,1.336h-5.224c-0.01,0.307,0.026,0.597,0.107,0.871
			c0.081,0.275,0.212,0.518,0.392,0.729c0.18,0.213,0.409,0.381,0.688,0.507s0.607,0.188,0.985,0.188
			c0.486,0,0.885-0.111,1.195-0.337s0.515-0.567,0.614-1.026h1.134C40.117,102.348,39.779,102.938,39.258,103.334z M38.981,98.852
			c-0.104-0.243-0.243-0.453-0.419-0.628c-0.176-0.176-0.383-0.315-0.621-0.419s-0.502-0.154-0.789-0.154
			c-0.298,0-0.565,0.051-0.804,0.154s-0.443,0.246-0.614,0.426s-0.306,0.389-0.405,0.627c-0.099,0.239-0.157,0.493-0.175,0.764
			h4.009C39.146,99.351,39.085,99.094,38.981,98.852z"/>
		<path fill="#0F75BB" d="M42.605,96.799v1.473h0.027c0.278-0.568,0.62-0.986,1.025-1.256c0.405-0.271,0.918-0.396,1.539-0.379
			v1.216c-0.459,0-0.851,0.063-1.175,0.188c-0.323,0.127-0.585,0.311-0.782,0.554c-0.198,0.243-0.343,0.538-0.433,0.884
			c-0.09,0.348-0.135,0.746-0.135,1.195v3.105h-1.147v-6.98H42.605z"/>
		<path fill="#0F75BB" d="M53.311,94.14c1.485,0,2.628,0.378,3.43,1.134c0.801,0.756,1.201,1.908,1.201,3.457
			c0,0.81-0.09,1.527-0.27,2.152c-0.181,0.626-0.459,1.152-0.838,1.58c-0.378,0.428-0.859,0.754-1.444,0.979
			s-1.277,0.338-2.079,0.338h-3.307v-9.64H53.311z M53.419,102.699c0.144,0,0.324-0.012,0.54-0.034s0.445-0.076,0.688-0.162
			c0.243-0.085,0.483-0.209,0.723-0.371c0.238-0.162,0.452-0.382,0.641-0.661c0.189-0.279,0.345-0.628,0.466-1.047
			c0.122-0.418,0.183-0.924,0.183-1.519c0-0.575-0.057-1.091-0.169-1.546c-0.112-0.454-0.297-0.842-0.554-1.16
			c-0.256-0.32-0.587-0.562-0.992-0.729s-0.904-0.25-1.498-0.25h-2.16v7.479H53.419z"/>
		<path fill="#0F75BB" d="M65.501,103.752c-0.197,0.117-0.472,0.176-0.823,0.176c-0.297,0-0.533-0.084-0.709-0.25
			c-0.175-0.166-0.263-0.439-0.263-0.816c-0.315,0.377-0.682,0.65-1.101,0.816c-0.418,0.166-0.871,0.25-1.356,0.25
			c-0.315,0-0.614-0.037-0.897-0.108c-0.284-0.071-0.529-0.185-0.736-0.337c-0.207-0.153-0.371-0.354-0.492-0.602
			c-0.122-0.247-0.183-0.547-0.183-0.897c0-0.396,0.067-0.72,0.202-0.972c0.136-0.252,0.312-0.457,0.533-0.615
			c0.221-0.156,0.473-0.276,0.756-0.357c0.284-0.08,0.574-0.148,0.871-0.202c0.315-0.063,0.614-0.11,0.897-0.142
			c0.284-0.031,0.533-0.076,0.75-0.135c0.216-0.059,0.387-0.145,0.513-0.257s0.188-0.276,0.188-0.493
			c0-0.252-0.047-0.454-0.142-0.607c-0.094-0.152-0.216-0.27-0.364-0.351s-0.315-0.136-0.499-0.162
			c-0.185-0.027-0.367-0.04-0.547-0.04c-0.486,0-0.892,0.092-1.215,0.276c-0.324,0.185-0.5,0.533-0.527,1.046H59.21
			c0.019-0.432,0.108-0.797,0.271-1.094s0.378-0.537,0.647-0.722c0.271-0.185,0.578-0.317,0.925-0.398s0.718-0.122,1.114-0.122
			c0.314,0,0.628,0.023,0.938,0.068s0.591,0.137,0.844,0.275c0.252,0.14,0.454,0.335,0.607,0.586
			c0.152,0.252,0.229,0.58,0.229,0.984v3.582c0,0.27,0.016,0.468,0.047,0.594c0.031,0.125,0.137,0.188,0.317,0.188
			c0.099,0,0.216-0.019,0.351-0.054V103.752z M63.639,100.174c-0.145,0.107-0.333,0.187-0.567,0.236
			c-0.234,0.049-0.479,0.089-0.735,0.12c-0.257,0.032-0.516,0.067-0.776,0.108c-0.262,0.039-0.495,0.104-0.702,0.193
			c-0.207,0.09-0.376,0.218-0.506,0.383c-0.131,0.166-0.196,0.393-0.196,0.68c0,0.188,0.038,0.346,0.115,0.477
			c0.076,0.13,0.175,0.234,0.297,0.315c0.121,0.081,0.263,0.139,0.425,0.175c0.162,0.035,0.333,0.054,0.513,0.054
			c0.379,0,0.702-0.052,0.973-0.155c0.27-0.103,0.49-0.232,0.661-0.389c0.171-0.157,0.297-0.327,0.378-0.511
			s0.122-0.356,0.122-0.517V100.174z"/>
		<path fill="#0F75BB" d="M69.552,96.799v1.014h-1.391v4.333c0,0.135,0.011,0.243,0.033,0.323c0.022,0.082,0.065,0.145,0.129,0.189
			c0.062,0.045,0.15,0.074,0.263,0.088s0.259,0.02,0.438,0.02h0.527v1.014h-0.878c-0.297,0-0.552-0.021-0.763-0.061
			c-0.212-0.041-0.383-0.115-0.513-0.224c-0.131-0.108-0.228-0.261-0.291-0.459c-0.062-0.198-0.094-0.459-0.094-0.782v-4.441h-1.188
			v-1.014h1.188v-2.092h1.147v2.092H69.552z"/>
		<path fill="#0F75BB" d="M77.003,103.752c-0.198,0.117-0.473,0.176-0.823,0.176c-0.297,0-0.533-0.084-0.709-0.25
			s-0.263-0.439-0.263-0.816c-0.315,0.377-0.682,0.65-1.101,0.816s-0.871,0.25-1.357,0.25c-0.314,0-0.614-0.037-0.897-0.108
			s-0.528-0.185-0.735-0.337c-0.207-0.153-0.372-0.354-0.493-0.602c-0.121-0.247-0.183-0.547-0.183-0.897
			c0-0.396,0.068-0.72,0.203-0.972s0.312-0.457,0.533-0.615c0.221-0.156,0.473-0.276,0.756-0.357
			c0.283-0.08,0.573-0.148,0.871-0.202c0.314-0.063,0.614-0.11,0.897-0.142s0.533-0.076,0.749-0.135s0.388-0.145,0.514-0.257
			s0.188-0.276,0.188-0.493c0-0.252-0.047-0.454-0.142-0.607c-0.095-0.152-0.216-0.27-0.364-0.351s-0.315-0.136-0.5-0.162
			c-0.185-0.027-0.367-0.04-0.547-0.04c-0.485,0-0.891,0.092-1.215,0.276s-0.499,0.533-0.526,1.046h-1.147
			c0.018-0.432,0.107-0.797,0.27-1.094s0.378-0.537,0.648-0.722c0.27-0.185,0.578-0.317,0.925-0.398s0.718-0.122,1.113-0.122
			c0.315,0,0.628,0.023,0.938,0.068s0.592,0.137,0.844,0.275c0.252,0.14,0.455,0.335,0.607,0.586
			c0.153,0.252,0.229,0.58,0.229,0.984v3.582c0,0.27,0.016,0.468,0.048,0.594c0.031,0.125,0.137,0.188,0.317,0.188
			c0.099,0,0.216-0.019,0.351-0.054V103.752z M75.14,100.174c-0.144,0.107-0.332,0.187-0.566,0.236
			c-0.234,0.049-0.479,0.089-0.736,0.12c-0.257,0.032-0.516,0.067-0.776,0.108c-0.261,0.039-0.495,0.104-0.702,0.193
			c-0.207,0.09-0.375,0.218-0.506,0.383c-0.131,0.166-0.195,0.393-0.195,0.68c0,0.188,0.038,0.346,0.114,0.477
			c0.076,0.13,0.176,0.234,0.297,0.315c0.122,0.081,0.264,0.139,0.426,0.175c0.162,0.035,0.333,0.054,0.513,0.054
			c0.378,0,0.702-0.052,0.972-0.155c0.271-0.103,0.491-0.232,0.662-0.389c0.171-0.157,0.297-0.327,0.378-0.511
			s0.121-0.356,0.121-0.517V100.174z"/>
		<path fill="#0F75BB" d="M84.807,96.799v1.014h-1.391v4.333c0,0.135,0.011,0.243,0.034,0.323c0.021,0.082,0.064,0.145,0.128,0.189
			c0.062,0.045,0.15,0.074,0.263,0.088c0.113,0.014,0.259,0.02,0.439,0.02h0.526v1.014h-0.878c-0.297,0-0.551-0.021-0.763-0.061
			c-0.211-0.041-0.383-0.115-0.513-0.224c-0.131-0.108-0.228-0.261-0.29-0.459c-0.063-0.198-0.095-0.459-0.095-0.782v-4.441H81.08
			v-1.014h1.188v-2.092h1.147v2.092H84.807z"/>
		<path fill="#0F75BB" d="M87.223,94.14v3.686h0.026c0.09-0.216,0.217-0.397,0.378-0.547c0.162-0.148,0.345-0.27,0.547-0.364
			c0.203-0.095,0.414-0.164,0.635-0.209s0.435-0.068,0.642-0.068c0.459,0,0.841,0.063,1.147,0.189
			c0.306,0.127,0.554,0.302,0.742,0.527c0.189,0.225,0.321,0.492,0.398,0.803c0.076,0.311,0.114,0.654,0.114,1.033v4.59h-1.147
			v-4.726c0-0.433-0.126-0.774-0.378-1.026s-0.599-0.377-1.039-0.377c-0.352,0-0.655,0.053-0.911,0.162
			c-0.257,0.107-0.471,0.26-0.642,0.459c-0.171,0.197-0.299,0.43-0.385,0.694c-0.086,0.266-0.128,0.556-0.128,0.871v3.942h-1.147
			v-9.64H87.223z"/>
		<path fill="#0F75BB" d="M94.62,96.799v1.473h0.027c0.278-0.568,0.621-0.986,1.025-1.256c0.405-0.271,0.918-0.396,1.539-0.379
			v1.216c-0.459,0-0.851,0.063-1.174,0.188c-0.324,0.127-0.585,0.311-0.783,0.554s-0.342,0.538-0.432,0.884
			c-0.091,0.348-0.136,0.746-0.136,1.195v3.105H93.54v-6.98H94.62z"/>
		<path fill="#0F75BB" d="M97.672,98.857c0.144-0.445,0.359-0.832,0.647-1.16s0.644-0.588,1.066-0.776
			c0.424-0.188,0.909-0.284,1.458-0.284c0.559,0,1.047,0.096,1.465,0.284c0.419,0.188,0.772,0.448,1.061,0.776
			c0.287,0.328,0.504,0.715,0.647,1.16c0.144,0.446,0.216,0.926,0.216,1.438s-0.072,0.99-0.216,1.431
			c-0.144,0.441-0.36,0.826-0.647,1.154c-0.288,0.328-0.642,0.586-1.061,0.77c-0.418,0.185-0.906,0.277-1.465,0.277
			c-0.549,0-1.034-0.093-1.458-0.277c-0.423-0.184-0.778-0.441-1.066-0.77s-0.504-0.713-0.647-1.154
			c-0.145-0.44-0.216-0.918-0.216-1.431S97.527,99.304,97.672,98.857z M98.84,101.423c0.112,0.329,0.268,0.604,0.466,0.823
			c0.197,0.221,0.43,0.39,0.694,0.507c0.266,0.117,0.547,0.175,0.844,0.175c0.298,0,0.579-0.058,0.844-0.175
			c0.266-0.117,0.498-0.286,0.695-0.507c0.198-0.22,0.354-0.494,0.466-0.823c0.112-0.328,0.169-0.704,0.169-1.127
			s-0.057-0.799-0.169-1.128c-0.112-0.328-0.268-0.604-0.466-0.83c-0.197-0.225-0.43-0.396-0.695-0.513
			c-0.265-0.116-0.546-0.175-0.844-0.175c-0.297,0-0.578,0.059-0.844,0.175c-0.265,0.117-0.497,0.288-0.694,0.513
			c-0.198,0.226-0.354,0.502-0.466,0.83c-0.113,0.329-0.169,0.705-0.169,1.128S98.727,101.095,98.84,101.423z"/>
		<path fill="#0F75BB" d="M110.279,103.779v-1.107h-0.026c-0.243,0.432-0.554,0.749-0.932,0.951
			c-0.378,0.203-0.823,0.305-1.337,0.305c-0.459,0-0.841-0.061-1.147-0.183c-0.306-0.122-0.553-0.295-0.742-0.521
			c-0.188-0.225-0.322-0.492-0.398-0.803s-0.114-0.654-0.114-1.033v-4.59h1.147v4.726c0,0.433,0.126,0.774,0.378,1.026
			s0.599,0.377,1.039,0.377c0.352,0,0.655-0.053,0.911-0.162c0.257-0.107,0.471-0.26,0.642-0.459
			c0.171-0.197,0.299-0.43,0.385-0.695c0.086-0.265,0.128-0.555,0.128-0.87v-3.942h1.147v6.98H110.279z"/>
		<path fill="#0F75BB" d="M118.326,105.75c-0.521,0.566-1.341,0.85-2.457,0.85c-0.323,0-0.654-0.035-0.992-0.107
			c-0.337-0.072-0.644-0.189-0.918-0.352c-0.274-0.161-0.501-0.373-0.682-0.634c-0.18-0.261-0.278-0.581-0.297-0.958h1.147
			c0.009,0.207,0.074,0.382,0.196,0.525c0.121,0.145,0.27,0.262,0.445,0.352s0.366,0.155,0.573,0.195
			c0.207,0.041,0.405,0.061,0.595,0.061c0.378,0,0.697-0.064,0.958-0.195s0.477-0.311,0.648-0.539
			c0.171-0.23,0.294-0.507,0.371-0.831c0.076-0.323,0.114-0.679,0.114-1.066v-0.459h-0.026c-0.198,0.433-0.498,0.749-0.898,0.952
			c-0.4,0.202-0.825,0.303-1.275,0.303c-0.522,0-0.977-0.094-1.363-0.283c-0.388-0.188-0.711-0.443-0.973-0.762
			c-0.261-0.32-0.456-0.693-0.587-1.121s-0.195-0.88-0.195-1.357c0-0.413,0.054-0.838,0.162-1.275
			c0.107-0.436,0.287-0.832,0.54-1.188c0.251-0.355,0.584-0.648,0.998-0.878s0.923-0.345,1.526-0.345
			c0.44,0,0.846,0.098,1.215,0.291s0.656,0.484,0.863,0.871h0.014v-1h1.08v6.386C119.109,104.328,118.849,105.183,118.326,105.75z
			 M116.862,102.611c0.265-0.158,0.479-0.365,0.641-0.621c0.162-0.257,0.281-0.547,0.358-0.871c0.076-0.324,0.114-0.648,0.114-0.972
			c0-0.306-0.036-0.607-0.108-0.905c-0.071-0.297-0.187-0.564-0.344-0.803s-0.362-0.43-0.614-0.574
			c-0.252-0.143-0.559-0.215-0.918-0.215c-0.369,0-0.685,0.069-0.945,0.209c-0.261,0.139-0.475,0.326-0.641,0.561
			c-0.167,0.233-0.288,0.504-0.365,0.81c-0.076,0.306-0.114,0.626-0.114,0.958c0,0.315,0.031,0.631,0.095,0.945
			c0.062,0.314,0.171,0.601,0.323,0.857c0.153,0.256,0.355,0.463,0.607,0.621c0.252,0.157,0.567,0.236,0.945,0.236
			S116.597,102.769,116.862,102.611z"/>
		<path fill="#0F75BB" d="M121.983,94.14v3.686h0.027c0.09-0.216,0.217-0.397,0.377-0.547c0.162-0.148,0.346-0.27,0.547-0.364
			c0.203-0.095,0.414-0.164,0.635-0.209s0.436-0.068,0.643-0.068c0.459,0,0.84,0.063,1.146,0.189
			c0.307,0.127,0.555,0.302,0.742,0.527c0.189,0.225,0.322,0.492,0.398,0.803s0.115,0.654,0.115,1.033v4.59h-1.148v-4.726
			c0-0.433-0.125-0.774-0.377-1.026s-0.6-0.377-1.039-0.377c-0.352,0-0.656,0.053-0.912,0.162c-0.256,0.107-0.471,0.26-0.641,0.459
			c-0.172,0.197-0.299,0.43-0.385,0.694c-0.086,0.266-0.129,0.556-0.129,0.871v3.942h-1.146v-9.64H121.983z"/>
		<path fill="#0F75BB" d="M138.279,103.752c-0.197,0.117-0.473,0.176-0.822,0.176c-0.297,0-0.533-0.084-0.709-0.25
			s-0.264-0.439-0.264-0.816c-0.314,0.377-0.682,0.65-1.1,0.816c-0.42,0.166-0.871,0.25-1.357,0.25
			c-0.314,0-0.613-0.037-0.898-0.108c-0.283-0.071-0.527-0.185-0.734-0.337c-0.207-0.153-0.371-0.354-0.494-0.602
			c-0.121-0.247-0.182-0.547-0.182-0.897c0-0.396,0.068-0.72,0.203-0.972s0.312-0.457,0.533-0.615
			c0.221-0.156,0.473-0.276,0.756-0.357c0.283-0.08,0.574-0.148,0.871-0.202c0.314-0.063,0.613-0.11,0.896-0.142
			s0.533-0.076,0.75-0.135s0.387-0.145,0.514-0.257c0.125-0.112,0.188-0.276,0.188-0.493c0-0.252-0.047-0.454-0.141-0.607
			c-0.096-0.152-0.217-0.27-0.365-0.351s-0.314-0.136-0.5-0.162c-0.184-0.027-0.365-0.04-0.547-0.04
			c-0.484,0-0.891,0.092-1.215,0.276c-0.322,0.185-0.498,0.533-0.525,1.046h-1.148c0.02-0.432,0.109-0.797,0.271-1.094
			s0.377-0.537,0.646-0.722c0.271-0.185,0.578-0.317,0.926-0.398c0.346-0.081,0.717-0.122,1.113-0.122
			c0.314,0,0.627,0.023,0.938,0.068s0.592,0.137,0.844,0.275c0.252,0.14,0.455,0.335,0.607,0.586c0.154,0.252,0.23,0.58,0.23,0.984
			v3.582c0,0.27,0.016,0.468,0.047,0.594c0.031,0.125,0.137,0.188,0.318,0.188c0.098,0,0.215-0.019,0.35-0.054V103.752z
			 M136.416,100.174c-0.143,0.107-0.332,0.187-0.566,0.236c-0.234,0.049-0.479,0.089-0.736,0.12
			c-0.256,0.032-0.514,0.067-0.775,0.108c-0.262,0.039-0.494,0.104-0.701,0.193c-0.207,0.09-0.377,0.218-0.508,0.383
			c-0.129,0.166-0.195,0.393-0.195,0.68c0,0.188,0.039,0.346,0.115,0.477c0.076,0.13,0.176,0.234,0.297,0.315
			s0.264,0.139,0.426,0.175c0.162,0.035,0.332,0.054,0.512,0.054c0.379,0,0.703-0.052,0.973-0.155
			c0.27-0.103,0.49-0.232,0.662-0.389c0.17-0.157,0.297-0.327,0.377-0.511c0.082-0.184,0.121-0.356,0.121-0.517V100.174z"/>
		<path fill="#0F75BB" d="M142.262,95.22v-1.08h7.709v1.08h-3.213v8.56h-1.283v-8.56H142.262z"/>
		<path fill="#0F75BB" d="M154.303,103.779v-1.107h-0.025c-0.244,0.432-0.555,0.749-0.932,0.951
			c-0.379,0.203-0.824,0.305-1.338,0.305c-0.459,0-0.84-0.061-1.146-0.183s-0.553-0.295-0.742-0.521
			c-0.189-0.225-0.322-0.492-0.398-0.803s-0.115-0.654-0.115-1.033v-4.59h1.148v4.726c0,0.433,0.125,0.774,0.377,1.026
			s0.6,0.377,1.039,0.377c0.352,0,0.656-0.053,0.912-0.162c0.256-0.107,0.471-0.26,0.641-0.459c0.172-0.197,0.299-0.43,0.385-0.695
			c0.086-0.265,0.129-0.555,0.129-0.87v-3.942h1.146v6.98H154.303z"/>
		<path fill="#0F75BB" d="M158.299,94.14v3.604h0.027c0.189-0.387,0.486-0.668,0.891-0.844c0.406-0.176,0.852-0.264,1.338-0.264
			c0.539,0,1.01,0.1,1.41,0.297c0.4,0.199,0.732,0.467,0.998,0.805c0.266,0.337,0.467,0.727,0.602,1.167s0.203,0.909,0.203,1.403
			c0,0.496-0.066,0.964-0.195,1.404c-0.131,0.441-0.33,0.826-0.596,1.154c-0.266,0.329-0.598,0.588-0.998,0.777
			c-0.4,0.188-0.867,0.283-1.396,0.283c-0.172,0-0.363-0.019-0.574-0.055c-0.213-0.035-0.422-0.094-0.629-0.176
			c-0.207-0.08-0.402-0.19-0.586-0.33c-0.186-0.14-0.34-0.312-0.467-0.52h-0.027v0.932h-1.146v-9.64H158.299z M162.424,99.276
			c-0.086-0.311-0.217-0.587-0.391-0.83c-0.176-0.243-0.402-0.437-0.676-0.581c-0.275-0.143-0.596-0.215-0.965-0.215
			c-0.387,0-0.717,0.076-0.986,0.229c-0.27,0.153-0.49,0.354-0.662,0.602c-0.17,0.247-0.295,0.528-0.371,0.844
			c-0.076,0.314-0.113,0.635-0.113,0.958c0,0.343,0.039,0.673,0.121,0.992c0.08,0.319,0.209,0.601,0.385,0.844
			s0.402,0.438,0.682,0.587s0.615,0.223,1.012,0.223s0.727-0.076,0.992-0.229c0.266-0.153,0.48-0.355,0.643-0.607
			s0.277-0.541,0.35-0.864c0.072-0.324,0.109-0.657,0.109-0.999C162.553,99.904,162.51,99.587,162.424,99.276z"/>
		<path fill="#0F75BB" d="M170.059,103.334c-0.521,0.396-1.18,0.594-1.971,0.594c-0.559,0-1.043-0.09-1.451-0.271
			c-0.41-0.18-0.754-0.433-1.033-0.756c-0.279-0.324-0.488-0.711-0.627-1.161c-0.141-0.449-0.219-0.94-0.236-1.471
			c0-0.531,0.08-1.018,0.242-1.459c0.162-0.44,0.389-0.823,0.682-1.147c0.293-0.323,0.639-0.575,1.039-0.756
			c0.4-0.18,0.84-0.271,1.316-0.271c0.621,0,1.137,0.129,1.547,0.385c0.408,0.257,0.736,0.584,0.984,0.979s0.418,0.828,0.514,1.296
			c0.094,0.468,0.133,0.914,0.115,1.336h-5.225c-0.01,0.307,0.025,0.597,0.107,0.871c0.08,0.275,0.211,0.518,0.391,0.729
			c0.182,0.213,0.41,0.381,0.689,0.507s0.607,0.188,0.984,0.188c0.486,0,0.885-0.111,1.195-0.337s0.516-0.567,0.615-1.026h1.133
			C170.918,102.348,170.58,102.938,170.059,103.334z M169.781,98.852c-0.104-0.243-0.242-0.453-0.418-0.628
			c-0.176-0.176-0.383-0.315-0.621-0.419s-0.502-0.154-0.789-0.154c-0.297,0-0.566,0.051-0.805,0.154s-0.443,0.246-0.613,0.426
			c-0.172,0.18-0.307,0.389-0.404,0.627c-0.1,0.239-0.158,0.493-0.176,0.764h4.01C169.945,99.351,169.885,99.094,169.781,98.852z"/>
	</g>
	<path fill="#0F75BB" d="M237.764,65.215h14.449v14.173h-14.449V65.215z"/>
	<path opacity="0.5" fill="#0F75BB" d="M203.213,41.012l5.828,8.014c1.271,1.848,2,4.045,2,6.036c0,2.092-0.812,4.058-2.291,5.536
		c-1.479,1.479-3.445,2.293-5.537,2.293c-2.088,0-4.055-0.813-5.533-2.292c-1.479-1.479-2.291-3.445-2.291-5.537
		c0-1.992,0.729-4.189,2-6.037L203.213,41.012"/>
</g>
</svg>
