<?xml version="1.0" encoding="utf-8"?>
<!-- Generator: Adobe Illustrator 16.0.0, SVG Export Plug-In . SVG Version: 6.00 Build 0)  -->
<!DOCTYPE svg PUBLIC "-//W3C//DTD SVG 1.1//EN" "http://www.w3.org/Graphics/SVG/1.1/DTD/svg11.dtd">
<svg version="1.1" id="Layer_1" xmlns="http://www.w3.org/2000/svg" xmlns:xlink="http://www.w3.org/1999/xlink" x="0px" y="0px"
	 width="158px" height="158px" viewBox="0 0 158 158" enable-background="new 0 0 158 158" xml:space="preserve">
<g>
	<g>
		<g>
			<path fill="#0F75BB" d="M31.365,44.141c10.633-14.601,27.806-24.13,47.25-24.13V-0.533c-26.278,0-49.543,12.837-63.908,32.574
				L31.365,44.141z"/>
		</g>
		<g>
			<path fill="#0F75BB" d="M96.677,22.888c17.745,5.763,31.748,19.772,37.518,37.52l19.557-6.356
				c-7.797-23.987-26.736-42.934-50.721-50.722L96.677,22.888z"/>
		</g>
		<g>
			<path fill="#0F75BB" d="M20.154,78.467c0-6.311,1.025-12.369,2.871-18.059L3.474,54.052c-2.497,7.689-3.861,15.891-3.861,24.415
				c0,17.354,5.605,33.39,15.095,46.426l16.658-12.103C24.35,103.145,20.154,91.309,20.154,78.467z"/>
		</g>
		<g>
			<path fill="#0F75BB" d="M112.938,125.708l12.1,16.661c19.732-14.365,32.574-37.628,32.574-63.902h-20.548
				C137.064,97.907,127.535,115.083,112.938,125.708z"/>
		</g>
		<g>
			<path fill="#0F75BB" d="M96.672,134.049c-5.696,1.849-11.755,2.876-18.057,2.876c-12.847,0-24.687-4.192-34.329-11.217
				l-12.1,16.658c13.034,9.489,29.075,15.101,46.429,15.101c8.521,0,16.72-1.364,24.409-3.861L96.672,134.049z"/>
		</g>
	</g>
	<path opacity="0.5" fill="#0F75BB" d="M78.606,42.156l16.896,23.233c3.687,5.355,5.798,11.725,5.798,17.499
		c0,6.065-2.355,11.762-6.642,16.048c-4.286,4.289-9.987,6.646-16.052,6.646c-6.055,0-11.757-2.357-16.043-6.644
		c-4.286-4.289-6.642-9.985-6.642-16.051c0-5.777,2.112-12.147,5.798-17.501L78.606,42.156"/>
</g>
</svg>
