<?xml version="1.0" encoding="utf-8"?>
<!-- Generator: Adobe Illustrator 16.0.0, SVG Export Plug-In . SVG Version: 6.00 Build 0)  -->
<!DOCTYPE svg PUBLIC "-//W3C//DTD SVG 1.1//EN" "http://www.w3.org/Graphics/SVG/1.1/DTD/svg11.dtd">
<svg version="1.1" id="Layer_1" xmlns="http://www.w3.org/2000/svg" xmlns:xlink="http://www.w3.org/1999/xlink" x="0px" y="0px"
	 width="150px" height="44px" viewBox="0 0 150 44" enable-background="new 0 0 150 44" xml:space="preserve">
<g>
	<path fill="#0F75BB" d="M38.716,0.5h8.554v22.217l10.782-11.204h10.12L56.426,22.958l13.071,19.698H59.136l-8.554-13.915
		l-3.312,3.193v10.722h-8.554V0.5z"/>
	<path fill="#0F75BB" d="M90.398,42.656h-9.518L70.218,11.513h8.976l6.566,21.265h0.119l6.567-21.265h8.492L90.398,42.656z"/>
	<path fill="#0F75BB" d="M31.511,36.829c-0.583,0-0.85,0-0.85-1.494v-15.81c0-6.917-6.423-8.854-13.673-8.854
		c-6.987,0-14.156,2.409-14.638,10.421h8.554c0.301-3.374,2.409-4.698,5.662-4.698c3.013,0,5.542,0.542,5.542,4.216
		c0,3.494-4.879,3.313-10.12,4.096c-5.301,0.724-10.602,2.409-10.602,9.458c0,6.385,4.698,9.336,10.602,9.336
		c3.795,0,7.771-1.023,10.481-3.854v0.001c0.837,2.032,3.134,3.854,6.019,3.854c1.243,0,3.86-0.423,4.924-0.788l0.506-0.175v-5.955
		C33.918,36.582,31.907,36.829,31.511,36.829z M22.108,30.609c0,1.868-0.862,6.91-6.671,6.91c-2.771,0-5.497-0.525-5.497-3.719
		c0-3.132,2.41-4.035,5.06-4.577c2.65-0.481,5.663-0.542,7.108-1.808V30.609z"/>
	<g>
		<g>
			<path fill="#0F75BB" d="M109.283,19.953c2.21-3.034,5.777-5.015,9.818-5.015v-4.268c-5.46,0-10.294,2.667-13.279,6.768
				L109.283,19.953z"/>
		</g>
		<g>
			<path fill="#0F75BB" d="M122.854,15.537c3.688,1.197,6.597,4.107,7.795,7.796l4.064-1.321
				c-1.621-4.983-5.557-8.921-10.539-10.539L122.854,15.537z"/>
		</g>
		<g>
			<path fill="#0F75BB" d="M106.954,27.086c0-1.312,0.213-2.571,0.597-3.753l-4.062-1.321c-0.52,1.598-0.803,3.302-0.803,5.074
				c0,3.604,1.165,6.937,3.136,9.646l3.461-2.515C107.826,32.213,106.954,29.753,106.954,27.086z"/>
		</g>
		<g>
			<path fill="#0F75BB" d="M126.232,36.901l2.515,3.461c4.1-2.984,6.768-7.818,6.768-13.276h-4.27
				C131.245,31.125,129.266,34.693,126.232,36.901z"/>
		</g>
		<g>
			<path fill="#0F75BB" d="M122.853,38.633c-1.184,0.385-2.441,0.599-3.751,0.599c-2.67,0-5.13-0.871-7.133-2.33l-2.514,3.46
				c2.707,1.973,6.04,3.138,9.646,3.138c1.77,0,3.474-0.283,5.07-0.802L122.853,38.633z"/>
		</g>
	</g>
	<path fill="#0F75BB" d="M139.91,34.119h8.703v8.537h-8.703V34.119z"/>
	<path opacity="0.5" fill="#0F75BB" d="M119.099,19.54l3.511,4.827c0.766,1.113,1.204,2.437,1.204,3.637
		c0,1.26-0.489,2.444-1.379,3.334c-0.892,0.892-2.076,1.381-3.336,1.381c-1.258,0-2.442-0.489-3.332-1.38
		c-0.892-0.891-1.381-2.075-1.381-3.335c0-1.2,0.439-2.524,1.204-3.637L119.099,19.54"/>
</g>
</svg>
