<?xml version="1.0" encoding="utf-8"?>
<!-- Generator: Adobe Illustrator 16.0.0, SVG Export Plug-In . SVG Version: 6.00 Build 0)  -->
<!DOCTYPE svg PUBLIC "-//W3C//DTD SVG 1.1//EN" "http://www.w3.org/Graphics/SVG/1.1/DTD/svg11.dtd">
<svg version="1.1" id="Layer_1" xmlns="http://www.w3.org/2000/svg" xmlns:xlink="http://www.w3.org/1999/xlink" x="0px" y="0px"
	 width="17.715px" height="24.572px" viewBox="0 0 17.715 24.572" enable-background="new 0 0 17.715 24.572" xml:space="preserve">
<g>
	<path fill="#84BADD" d="M8.857,2C6.965,2,5.349,2.67,4.009,4.01C2.67,5.349,2,6.965,2,8.857c0,0.974,0.147,1.772,0.442,2.397
		l4.889,10.366c0.134,0.295,0.341,0.526,0.622,0.696c0.281,0.169,0.583,0.255,0.904,0.255s0.623-0.086,0.904-0.255
		c0.281-0.17,0.493-0.401,0.636-0.696l4.875-10.366c0.295-0.625,0.442-1.424,0.442-2.397c0-1.893-0.67-3.509-2.009-4.848
		C12.366,2.67,10.75,2,8.857,2z M11.281,11.281c-0.669,0.67-1.478,1.005-2.424,1.005s-1.754-0.335-2.424-1.005
		S5.429,9.804,5.429,8.857s0.335-1.754,1.005-2.424s1.478-1.005,2.424-1.005s1.755,0.335,2.424,1.005
		c0.67,0.67,1.005,1.478,1.005,2.424S11.951,10.611,11.281,11.281z"/>
	<path fill="#FFFFFF" d="M15.12,2.596C13.398,0.873,11.291,0,8.857,0S4.317,0.873,2.595,2.596C0.873,4.317,0,6.424,0,8.857
		c0,1.284,0.207,2.347,0.634,3.251l4.888,10.366c0.287,0.631,0.773,1.178,1.397,1.555c0.601,0.361,1.252,0.543,1.938,0.543
		s1.337-0.182,1.935-0.54c0.621-0.376,1.093-0.894,1.406-1.541l4.884-10.385c0.426-0.901,0.633-1.964,0.633-3.249
		C17.715,6.424,16.842,4.317,15.12,2.596z M15.272,11.255l-4.875,10.366c-0.143,0.295-0.354,0.526-0.636,0.696
		c-0.281,0.169-0.583,0.255-0.904,0.255s-0.623-0.086-0.904-0.255c-0.281-0.17-0.488-0.401-0.622-0.696L2.442,11.255
		C2.147,10.63,2,9.831,2,8.857C2,6.965,2.67,5.349,4.009,4.01C5.349,2.67,6.965,2,8.857,2s3.509,0.67,4.849,2.01
		c1.339,1.339,2.009,2.955,2.009,4.848C15.715,9.831,15.567,10.63,15.272,11.255z"/>
	<path fill="#FFFFFF" d="M8.857,5.429c-0.946,0-1.754,0.335-2.424,1.005S5.429,7.911,5.429,8.857s0.335,1.754,1.005,2.424
		s1.478,1.005,2.424,1.005s1.755-0.335,2.424-1.005c0.67-0.67,1.005-1.478,1.005-2.424s-0.335-1.754-1.005-2.424
		C10.612,5.764,9.804,5.429,8.857,5.429z"/>
</g>
</svg>
